<?xml version="1.0" standalone="no"?>
<!DOCTYPE svg PUBLIC "-//W3C//DTD SVG 20010904//EN"
 "http://www.w3.org/TR/2001/REC-SVG-20010904/DTD/svg10.dtd">
<svg version="1.0" xmlns="http://www.w3.org/2000/svg"
 width="300.000000pt" height="300.000000pt" viewBox="0 0 300.000000 300.000000"
 preserveAspectRatio="xMidYMid meet">
<metadata>
Created by potrace 1.14, written by Peter Selinger 2001-2017
</metadata>
<g transform="translate(0.000000,300.000000) scale(0.100000,-0.100000)"
fill="#000000" stroke="none">
<path d="M892 2949 c-23 -55 -36 -57 -46 -7 -7 32 -8 32 -22 13 -8 -11 -17
-36 -21 -57 -7 -46 -21 -49 -30 -8 -3 17 -10 33 -14 36 -11 7 -59 -93 -59
-123 0 -33 -17 -37 -28 -6 l-9 28 -8 -37 c-9 -48 -21 -48 -32 -1 -4 20 -13 38
-19 40 -27 9 -73 -142 -85 -277 -2 -26 -17 34 -18 73 -1 21 -5 36 -9 33 -6 -4
-42 -110 -69 -205 -3 -11 -7 -10 -18 5 -16 22 -15 24 -39 -78 -9 -37 -16 -101
-16 -141 0 -54 -4 -76 -14 -80 -11 -4 -11 -17 -1 -75 12 -71 36 -121 78 -160
20 -19 24 -33 25 -88 1 -37 6 -71 11 -78 5 -6 17 -38 26 -71 28 -97 70 -180
116 -230 23 -25 59 -79 78 -118 25 -49 45 -76 64 -85 15 -7 34 -27 44 -45 39
-76 116 -145 98 -88 -4 13 1 24 16 35 22 15 25 13 74 -33 48 -45 90 -69 102
-58 2 3 -6 8 -19 12 -40 12 -138 118 -138 150 0 22 122 135 147 135 5 0 35 20
67 45 31 24 67 47 79 51 12 4 29 15 37 24 20 22 74 50 98 50 31 0 72 -63 93
-143 l9 -32 -5 35 c-3 19 -7 46 -11 60 -5 23 3 31 64 73 38 26 72 47 76 47 4
0 27 -16 50 -35 75 -61 132 -44 316 96 141 107 145 112 144 157 -1 23 -13 63
-28 91 -23 45 -24 51 -10 65 8 9 24 16 34 16 21 0 36 30 20 40 -6 4 -19 21
-28 38 -46 85 -90 153 -138 217 -86 114 -295 318 -380 372 -31 20 -44 35 -44
51 0 25 -12 29 -30 7 -21 -26 -30 -17 -31 33 -1 50 -19 114 -35 119 -5 2 -14
-7 -19 -18 -14 -30 -28 -26 -38 12 -8 31 -8 31 -23 10 -19 -27 -34 -19 -34 18
0 41 -11 45 -32 10 -22 -36 -38 -30 -38 15 0 18 -6 41 -14 51 -12 17 -15 15
-37 -31 -22 -48 -23 -49 -27 -19 -6 47 -17 50 -47 11 -15 -20 -31 -36 -35 -36
-4 0 -11 20 -14 45 -4 25 -10 45 -14 45 -4 0 -15 -14 -24 -30 -9 -17 -21 -30
-26 -30 -5 0 -14 25 -21 55 -16 73 -39 74 -69 4z m721 -594 c15 -17 39 -28 75
-35 56 -10 102 -37 139 -80 11 -14 33 -32 47 -39 14 -8 26 -22 26 -32 0 -10
18 -33 39 -51 22 -19 58 -57 80 -85 40 -50 40 -50 20 -69 -19 -17 -21 -17 -49
-1 -29 17 -31 17 -83 -7 -114 -54 -365 -236 -384 -279 -11 -23 -2 -60 16 -72
6 -3 11 -12 11 -18 0 -13 -119 -97 -137 -97 -5 0 -16 11 -23 25 -23 43 -51 41
-141 -7 -91 -48 -324 -219 -340 -250 -6 -11 -9 -33 -6 -48 5 -22 1 -30 -19
-40 -13 -7 -26 -11 -28 -9 -8 9 -85 168 -111 229 -15 36 -40 81 -56 101 -16
21 -31 54 -35 80 -3 24 -13 54 -20 66 -8 12 -14 32 -14 43 0 11 -7 23 -15 26
-12 5 -14 15 -9 41 5 25 3 38 -7 44 -7 4 -11 11 -7 14 11 11 138 34 153 28 8
-3 32 2 53 10 20 8 64 18 97 22 52 7 65 13 110 55 27 26 66 55 86 63 42 17
119 83 119 102 0 18 28 40 100 77 35 18 70 44 76 57 7 12 26 31 43 42 17 10
31 25 31 32 0 7 12 20 28 29 15 9 36 26 46 37 26 28 62 26 89 -4z m387 -425
c25 -27 70 -123 70 -150 0 -51 -302 -270 -372 -270 -47 0 -168 103 -168 143 0
19 60 79 83 83 6 1 32 20 56 43 24 23 48 41 52 41 5 0 -11 -18 -34 -40 l-42
-39 27 -27 c30 -31 41 -28 102 21 29 23 29 24 13 49 -9 14 -17 28 -17 32 0 3
27 4 60 2 33 -2 60 -1 60 3 0 12 -29 19 -76 19 -46 0 -52 4 -31 24 27 26 154
96 175 96 8 0 27 -14 42 -30z m-285 -200 c-3 -5 -10 -10 -16 -10 -5 0 -9 5 -9
10 0 6 7 10 16 10 8 0 12 -4 9 -10z"/>
<path d="M1575 2005 c-121 -66 -165 -98 -152 -112 11 -11 57 9 169 73 99 57
100 57 181 57 l82 -1 -50 24 c-27 13 -63 24 -80 24 -18 0 -78 -26 -150 -65z"/>
<path d="M971 1597 c-132 -119 -146 -140 -134 -209 7 -48 20 -49 28 0 11 61
37 102 95 146 66 50 180 156 180 168 0 4 -10 8 -22 8 -15 -1 -68 -42 -147
-113z"/>
<path d="M2167 1875 c19 -16 30 -32 27 -42 -5 -21 12 -51 22 -41 19 20 -34
108 -64 108 -12 0 -8 -8 15 -25z"/>
<path d="M2260 1669 c0 -3 20 -59 44 -125 24 -65 49 -144 56 -174 7 -30 17
-64 23 -75 16 -31 21 -192 8 -284 -7 -53 -7 -88 -2 -95 14 -17 -4 -86 -40
-158 -36 -72 -104 -147 -156 -174 -21 -10 -56 -35 -79 -55 -56 -50 -141 -80
-243 -87 -72 -4 -90 -2 -125 16 -23 11 -93 36 -156 56 -158 51 -241 101 -418
255 -52 44 -96 81 -98 81 -29 0 301 -324 386 -379 67 -43 201 -91 310 -111 36
-6 81 -16 101 -21 61 -15 107 -10 207 23 138 45 228 110 283 203 16 28 38 61
49 75 11 14 32 70 46 125 23 86 27 122 28 260 l1 160 -38 99 c-21 54 -58 140
-82 190 -24 50 -48 105 -54 121 -11 28 -50 86 -51 74z"/>
<path d="M1144 1408 c-41 -36 -74 -99 -73 -138 0 -19 3 -15 13 16 20 65 25 68
51 44 21 -20 25 -20 52 -7 15 8 37 24 47 36 16 18 17 24 6 51 -17 40 -49 39
-96 -2z m21 -47 c3 -5 1 -12 -5 -16 -5 -3 -10 1 -10 9 0 18 6 21 15 7z"/>
<path d="M1430 1330 c0 -11 -12 -31 -27 -44 -80 -69 -88 -77 -66 -66 40 19
103 86 103 108 0 12 -2 22 -5 22 -3 0 -5 -9 -5 -20z"/>
<path d="M1797 1283 c-10 -9 -9 -43 1 -43 10 0 42 33 42 43 0 9 -35 9 -43 0z"/>
<path d="M1232 1160 c-34 -22 -83 -52 -109 -65 -25 -14 -40 -25 -33 -25 21 0
229 129 209 130 -3 0 -33 -18 -67 -40z"/>
<path d="M1600 1135 c0 -16 17 -19 44 -9 26 10 18 24 -14 24 -20 0 -30 -5 -30
-15z"/>
<path d="M2115 1141 c-6 -5 -41 -19 -80 -32 -84 -27 -131 -57 -156 -98 -11
-18 -27 -31 -39 -31 -11 0 -20 -4 -20 -9 0 -5 -9 -7 -20 -4 -21 6 -64 -33
-111 -99 -25 -35 -14 -31 46 18 22 17 65 44 95 59 30 15 75 46 100 70 50 47
137 98 145 85 6 -10 -107 -130 -155 -164 -50 -35 -214 -116 -247 -122 -85 -14
-116 -22 -96 -23 13 0 57 -10 99 -22 91 -25 139 -20 229 20 70 32 168 118 195
170 18 36 42 191 30 191 -3 0 -10 -4 -15 -9z"/>
<path d="M897 1042 c-11 -17 2 -58 26 -80 25 -23 77 -46 77 -33 0 14 -46 51
-63 51 -10 0 -19 11 -23 28 -3 15 -7 31 -8 37 -1 5 -6 4 -9 -3z"/>
<path d="M2920 391 c0 -9 34 -21 63 -21 9 0 17 7 17 15 0 11 -11 15 -40 15
-22 0 -40 -4 -40 -9z"/>
<path d="M2332 327 c-69 -19 -77 -24 -112 -73 -22 -28 -62 -66 -90 -83 -48
-29 -142 -61 -181 -61 -9 0 -32 -15 -51 -32 -18 -18 -47 -43 -63 -55 l-30 -22
598 0 597 -1 0 90 c0 89 0 90 -27 97 -16 4 -71 6 -123 5 -251 -8 -285 -7 -315
8 -21 11 -32 25 -35 45 -6 37 -59 105 -80 104 -8 0 -48 -10 -88 -22z"/>
<path d="M1420 91 c-58 -25 -128 -56 -155 -68 l-50 -21 143 -1 142 -1 0 43 c0
23 7 53 16 65 9 13 14 24 13 26 -2 1 -51 -18 -109 -43z"/>
</g>
</svg>
